<?xml version="1.0" encoding="UTF-8"?>
<svg version="1.1" xmlns="http://www.w3.org/2000/svg" width="2048" height="2048">
<path d="M0 0 C675.84 0 1351.68 0 2048 0 C2048 675.84 2048 1351.68 2048 2048 C1372.16 2048 696.32 2048 0 2048 C0 1372.16 0 696.32 0 0 Z " fill="#FEFEFE" transform="translate(0,0)"/>
<path d="M0 0 C675.84 0 1351.68 0 2048 0 C2048 675.84 2048 1351.68 2048 2048 C1372.16 2048 696.32 2048 0 2048 C0 1372.16 0 696.32 0 0 Z M802.875 213.1875 C801.67415771 213.50807373 800.47331543 213.82864746 799.23608398 214.15893555 C713.46713552 237.39464327 631.55620117 275.70527761 520 352 C518.69834697 352.98234127 517.39623057 353.96406873 516.09375 354.9453125 C498.25818921 368.42510266 481.00590607 382.71280193 464.4765625 397.76953125 C462.39486666 399.64437088 460.29329137 401.48959669 458.1796875 403.328125 C446.46085822 413.56881783 435.38827898 424.51223425 424.375 435.5 C423.86026123 436.01215057 423.34552246 436.52430115 422.81518555 437.05197144 C417.55696447 442.28929488 412.38468409 447.55797638 407.55615234 453.19873047 C405.00280411 456.15426911 402.30452453 458.97183497 399.625 461.8125 C394.97684467 466.77973093 390.55521464 471.85576033 386.30078125 477.16796875 C383.64090059 480.4420154 380.88740055 483.62508101 378.125 486.8125 C372.1838191 493.70070326 366.55220684 500.79657923 361 508 C360.49355957 508.65339355 359.98711914 509.30678711 359.46533203 509.97998047 C330.21935647 547.72340168 304.4582707 587.87035952 282 630 C281.51176758 630.91330078 281.02353516 631.82660156 280.52050781 632.76757812 C261.55499407 668.34823212 245.44218569 704.99277088 232 743 C231.56816406 744.21864746 231.13632813 745.43729492 230.69140625 746.69287109 C223.36799148 767.41616279 217.13951829 788.1443908 211.69140625 809.43359375 C210.70409854 813.28745651 209.7018006 817.1352564 208.65234375 820.97265625 C199.42993378 854.75169285 193.98814033 889.24512233 189.77047729 923.95129395 C189.55395458 925.73054669 189.33587913 927.5096114 189.11599731 929.28845215 C188.34881806 935.51954434 187.65249189 941.75589349 187 948 C186.85425537 949.3459021 186.85425537 949.3459021 186.70556641 950.71899414 C184.2736777 973.94496661 184.6048726 997.30212721 184.625 1020.625 C184.62488779 1022.78792318 184.62476567 1024.95084635 184.62463379 1027.11376953 C184.63811465 1056.79892997 185.04573516 1086.20442563 188.71820068 1115.70050049 C189.0997557 1118.81401259 189.44582495 1121.93114359 189.79382324 1125.04855347 C191.27345305 1138.2423879 192.97369941 1151.40501848 195.51220703 1164.44140625 C196.13474472 1167.70676908 196.72026933 1170.97830173 197.30859375 1174.25 C200.16221205 1190.02214388 203.39876158 1205.61639795 207.30175781 1221.16845703 C207.97714687 1223.90732495 208.61704457 1226.65161418 209.2421875 1229.40234375 C221.17774419 1281.81542973 241.15306866 1333.47838772 264 1382 C264.69512695 1383.49080078 264.69512695 1383.49080078 265.40429688 1385.01171875 C288.9549134 1435.47271054 318.14182621 1483.76777296 352 1528 C352.98234127 1529.30165303 353.96406873 1530.60376943 354.9453125 1531.90625 C368.42510266 1549.74181079 382.71280193 1566.99409393 397.76953125 1583.5234375 C399.6419342 1585.60242781 401.48444278 1587.70141623 403.3203125 1589.8125 C413.25158153 1601.17800661 423.84461502 1611.94241973 434.5 1622.625 C435.41918213 1623.54877441 436.33836426 1624.47254883 437.28540039 1625.42431641 C441.77585055 1629.90455264 446.31835609 1634.24684031 451.13232422 1638.37744141 C454.2821056 1641.11383971 457.28476996 1644.00520345 460.3125 1646.875 C465.5394866 1651.79493773 470.85862862 1656.45374682 476.46875 1660.93359375 C479.00138153 1663.00112782 481.4073116 1665.16113341 483.8125 1667.375 C489.31328373 1672.37492744 495.13608991 1676.91866382 501.01367188 1681.45947266 C503.1054257 1683.08176452 505.18625789 1684.71733548 507.265625 1686.35546875 C545.3456944 1716.29347316 586.22555361 1742.96919917 629.11816406 1765.48339844 C631.71952007 1766.85239399 634.31092212 1768.23788799 636.8984375 1769.6328125 C681.53707377 1793.61114362 730.3196474 1814.97994963 779.4140625 1827.734375 C783.47325468 1828.81029388 787.46414307 1830.08691155 791.46484375 1831.359375 C799.88575057 1834.02289668 808.38081664 1836.31735501 816.9375 1838.5 C818.07909073 1838.79230499 818.07909073 1838.79230499 819.2437439 1839.09051514 C831.59165678 1842.24189496 843.95881909 1845.03853888 856.49511719 1847.34472656 C859.75499498 1847.95419382 863.00812793 1848.59062352 866.2611084 1849.23550415 C883.78880123 1852.70080664 901.31858766 1855.6336358 919.0625 1857.75 C920.2347261 1857.89223999 920.2347261 1857.89223999 921.43063354 1858.03735352 C927.61245506 1858.77785746 933.80311705 1859.40020656 940 1860 C941.25776245 1860.12601593 942.5155249 1860.25203186 943.81140137 1860.38186646 C968.78089762 1862.85730064 993.59770498 1863.52923661 1018.68064499 1863.44662857 C1021.67415426 1863.4373476 1024.66764233 1863.43296172 1027.66116333 1863.42929077 C1058.26729522 1863.37705005 1088.57403672 1862.58814993 1119 1859 C1120.61326567 1858.81610673 1122.22654661 1858.63234743 1123.83984375 1858.44873047 C1156.5789364 1854.65413244 1189.47691126 1848.89725367 1221.38818359 1840.65722656 C1223.9659048 1840.00857957 1226.54991279 1839.41295927 1229.14453125 1838.8359375 C1244.36759632 1835.43587684 1259.16953623 1830.80355726 1274 1826 C1274.70888367 1825.77101013 1275.41776733 1825.54202026 1276.14813232 1825.30609131 C1337.45848184 1805.48645599 1396.74783921 1780.31465069 1452 1747 C1453.91381647 1745.86026385 1455.8278805 1744.7209433 1457.7421875 1743.58203125 C1483.46781592 1728.18893454 1508.18732182 1711.20413656 1532 1693 C1532.73927734 1692.43490723 1533.47855469 1691.86981445 1534.24023438 1691.28759766 C1543.01884922 1684.55868903 1551.66434197 1677.71963078 1560.0546875 1670.51171875 C1562.85379079 1668.12468504 1565.69685091 1665.80639849 1568.5625 1663.5 C1573.55168418 1659.44174232 1578.27670615 1655.15484434 1582.98046875 1650.7734375 C1585.24646046 1648.67135879 1587.55835545 1646.62981971 1589.890625 1644.6015625 C1601.41730937 1634.55196004 1612.30247227 1623.79627473 1623.125 1613 C1623.86123093 1612.26765137 1623.86123093 1612.26765137 1624.61233521 1611.52050781 C1629.72642754 1606.4277425 1634.72892651 1601.29977832 1639.42626953 1595.81884766 C1641.98725624 1592.85897317 1644.68961139 1590.03404482 1647.375 1587.1875 C1652.10196376 1582.14089056 1656.57509143 1576.96665852 1660.8984375 1571.56640625 C1662.98001427 1569.02440637 1665.1503838 1566.60470665 1667.375 1564.1875 C1672.37492744 1558.68671627 1676.91866382 1552.86391009 1681.45947266 1546.98632812 C1683.08176452 1544.8945743 1684.71733548 1542.81374211 1686.35546875 1540.734375 C1740.85331443 1471.41506709 1783.13924621 1393.59649907 1834.40478516 1245.39648438 C1835.24303138 1242.02149466 1836.15145918 1238.66858712 1837.0625 1235.3125 C1837.70958285 1232.87533141 1838.35537208 1230.43781907 1839 1228 C1839.17853516 1227.33726074 1839.35707031 1226.67452148 1839.54101562 1225.99169922 C1845.58584307 1203.43784561 1850.28536111 1180.26413408 1853.39453125 1157.12109375 C1853.81075492 1154.08368685 1854.36741369 1151.0998777 1854.98828125 1148.09765625 C1856.87231949 1138.87088009 1857.78729429 1129.53050085 1858.76702881 1120.17175293 C1859.00864526 1117.91940903 1859.26618951 1115.66927302 1859.52587891 1113.41894531 C1866.36615292 1053.14999255 1866.72296516 989.18216498 1859 929 C1858.88873779 928.11052673 1858.77747559 927.22105347 1858.6628418 926.30462646 C1857.01810704 913.16335894 1855.10729626 900.07456553 1853 887 C1852.81470734 885.83951141 1852.81470734 885.83951141 1852.62567139 884.65557861 C1849.51462647 865.200078 1845.59943921 846.11524765 1840.75341797 827.01123047 C1839.92284841 823.69164366 1839.15059363 820.36220455 1838.39624023 817.0246582 C1836.02556912 806.56165897 1833.06785415 796.27739401 1830 786 C1829.67370605 784.90606934 1829.34741211 783.81213867 1829.01123047 782.68505859 C1809.42679572 717.44321087 1781.95387599 654.48310155 1747 596 C1746.41959961 595.02498535 1745.83919922 594.0499707 1745.24121094 593.04541016 C1730.1976072 567.82574504 1713.85422673 543.32471371 1696 520 C1695.01765873 518.69834697 1694.03593127 517.39623057 1693.0546875 516.09375 C1679.57489734 498.25818921 1665.28719807 481.00590607 1650.23046875 464.4765625 C1648.35684751 462.39621948 1646.51298026 460.2959375 1644.67578125 458.18359375 C1634.58971618 446.64132367 1623.82166291 435.72297765 1613 424.875 C1612.26765137 424.13876907 1612.26765137 424.13876907 1611.52050781 423.38766479 C1606.43788098 418.28375339 1601.3200257 413.29289387 1595.85009766 408.60498047 C1592.70463377 405.87625527 1589.70934267 402.98891924 1586.6875 400.125 C1581.5649753 395.30741768 1576.35089469 390.71232895 1570.8515625 386.32421875 C1568.09540616 384.07776256 1565.42498931 381.75916562 1562.75830078 379.40844727 C1554.82854727 372.42545328 1546.59069557 365.96369289 1538.14404297 359.62060547 C1536.03253191 358.02458971 1533.93772645 356.40912055 1531.84765625 354.78515625 C1459.27648934 298.4728698 1376.58579063 256.64962681 1247 214 C1245.64043257 213.62439377 1244.28102568 213.24820525 1242.921875 212.87109375 C1240.00928893 212.07644983 1237.09179839 211.30828243 1234.16699219 210.56005859 C1232.55134252 210.14249434 1230.93771931 209.7170742 1229.32519531 209.28759766 C1186.74806221 197.96183118 1143.4108451 191.2395979 1099.57632446 187.24313354 C1096.97142921 186.99730371 1094.37034917 186.72373482 1091.76831055 186.44946289 C1072.5357136 184.54426636 1053.27580426 184.65975868 1033.96899414 184.68432617 C1030.06164933 184.68892163 1026.1546185 184.6821571 1022.24731445 184.66381836 C947.86054565 184.31815512 874.76816064 193.97320308 802.875 213.1875 Z " fill="#BB0000" transform="translate(0,0)"/>
<path d="M0 0 C3.99841642 1.85068757 6.76123078 4.4732437 9.84065247 7.5664978 C10.71050869 8.42849901 10.71050869 8.42849901 11.59793776 9.30791438 C13.5411958 11.23616182 15.47722992 13.17150115 17.41333008 15.10693359 C18.80429507 16.49027813 20.19566242 17.87321818 21.58740234 19.25578308 C25.36678023 23.01320511 29.13955436 26.77719034 32.91050935 30.54306364 C35.2646989 32.89361262 37.62018198 35.24285738 39.97611046 37.59166336 C48.18893699 45.77999707 56.39602848 53.97403416 64.59838867 62.17285156 C72.2551551 69.82597708 79.92496911 77.46585524 87.60079843 85.09985673 C94.18374849 91.64818305 100.75711277 98.20602864 107.32312316 104.77134001 C111.24797718 108.69539889 115.17675621 112.61532905 119.11536598 116.52558517 C122.81582747 120.2 126.50428537 123.88604377 130.18367767 127.58155251 C131.53910883 128.93880852 132.89885963 130.29176579 134.26310539 131.64016151 C136.11854898 133.47534782 137.95808092 135.32510951 139.79426575 137.17953491 C140.34307382 137.71514302 140.89188189 138.25075112 141.45732051 138.80258977 C142.93217182 140.31134605 142.93217182 140.31134605 145 143 C144.81709957 147.09570868 142.1723915 149.20038287 139.39476681 151.97437668 C138.90904972 152.4635553 138.42333262 152.95273393 137.92289683 153.45673615 C136.28369433 155.10391728 134.63395622 156.74012717 132.9841156 158.37664795 C131.79879349 159.56327758 130.61413054 160.75056595 129.43007332 161.93845773 C126.16680617 165.20845233 122.89422553 168.46898669 119.62009633 171.72810054 C116.09387736 175.24139596 112.57629951 178.76332384 109.05767822 182.28422546 C102.95769528 188.38578348 96.85223201 194.48181313 90.74304008 200.57415009 C81.91012301 209.38271337 73.08547559 218.19952302 64.26284171 227.01838449 C49.94939799 241.32525804 35.6292639 255.62541562 21.30493164 269.92138672 C7.38801178 283.81078065 -6.52576203 297.7033137 -20.43530273 311.60009766 C-21.29230774 312.45631449 -22.14931275 313.31253133 -23.03228761 314.19469413 C-27.33149697 318.48998846 -31.6306444 322.78534475 -35.92976105 327.08073187 C-71.61024451 362.73010181 -107.3015829 398.36858901 -143 434 C-139.19915158 438.53921505 -135.27491215 442.86905653 -131.0774231 447.04283142 C-130.51284987 447.60825907 -129.94827665 448.17368672 -129.36659515 448.75624853 C-127.49431664 450.63016019 -125.61851253 452.50050039 -123.74267578 454.37084961 C-122.39183931 455.72140371 -121.04122358 457.07217864 -119.69081116 458.42315674 C-116.03855963 462.07569431 -112.38324056 465.72514781 -108.72735071 469.37404323 C-104.90187803 473.19325027 -101.07925085 477.01530321 -97.25631714 480.83705139 C-90.02303933 488.06722534 -82.78721694 495.2948471 -75.55047023 502.52154881 C-67.30908941 510.75173913 -59.07055941 518.98478064 -50.83226418 527.21805942 C-33.8913398 544.14854082 -16.94684971 561.0754498 0 578 C3.73864449 576.4394452 6.11086391 574.13772553 8.95875931 571.28733635 C9.68999468 570.55956251 9.68999468 570.55956251 10.43600249 569.81708616 C12.07501603 568.18338372 13.70677417 566.54262104 15.33868408 564.90182495 C16.52140231 563.71997857 17.70455981 562.53857164 18.88811946 561.35756791 C22.14444472 558.10572443 25.39448461 554.84766114 28.64355755 551.58857369 C32.14638495 548.07712609 35.65497296 544.57144293 39.16287231 541.06506348 C45.24150823 534.98747732 51.3164655 528.90623396 57.38895416 522.82250595 C66.16880662 514.02641376 74.9541629 505.23583578 83.74088129 496.44660284 C97.9958818 482.18722283 112.24640833 467.92338028 126.49414062 453.65673828 C140.33620121 439.79632549 154.18035648 425.93801049 168.02734375 412.08251953 C168.88057359 411.22876424 169.73380343 410.37500895 170.61288872 409.49538229 C174.89321617 405.21244481 179.17358494 400.92954862 183.45397425 396.64667296 C218.97572443 361.10418234 254.49022239 325.5544519 290 290 C292.92327216 291.32108604 294.99671755 292.747006 297.2603786 295.01198161 C297.88717059 295.63427901 298.51396257 296.25657641 299.15974826 296.8977313 C299.84071309 297.58395016 300.52167792 298.27016902 301.22327805 298.97718239 C301.95558248 299.70717914 302.68788692 300.43717588 303.4423824 301.18929374 C305.91418561 303.65577033 308.37874483 306.12936253 310.84344482 308.60293579 C312.62425886 310.38287831 314.40551208 312.16238153 316.18716836 313.94148099 C320.06964844 317.82041193 323.94898622 321.70244487 327.82562447 325.58721352 C333.59008168 331.36372684 339.36024887 337.13451082 345.13161515 342.90412022 C354.839188 352.60906338 364.54209327 362.31866052 374.24236298 372.03090286 C383.84926438 381.64963131 393.45822476 391.26629512 403.06995392 400.88019943 C403.66719442 401.47757742 404.26443493 402.0749554 404.87977363 402.69043574 C407.91276778 405.72410655 410.94579888 408.75774042 413.9788442 411.79136007 C435.47150562 433.28822425 456.95952467 454.78972341 478.44482422 476.29394531 C499.31975681 497.18724149 520.19678527 518.07843977 541.07666016 538.96679688 C541.72007215 539.61047192 542.36348414 540.25414697 543.02639347 540.91732732 C549.48770147 547.38127232 555.94905216 553.84517464 562.41043413 560.3090457 C575.57345106 573.47713529 588.73618301 586.64550974 601.89874268 599.8140564 C602.50395924 600.41954754 603.10917581 601.02503869 603.73273227 601.64887805 C644.15992875 642.09448123 684.5804602 682.54674526 725 723 C723.14082272 727.02294698 720.48876549 729.78499274 717.36862183 732.87188721 C716.78704854 733.45516934 716.20547526 734.03845148 715.60627854 734.63940883 C713.65483968 736.59414392 711.69633472 738.54164142 709.73779297 740.48925781 C708.33807145 741.88841524 706.93879007 743.2880131 705.53991699 744.6880188 C701.73883737 748.48967304 697.93161583 752.28512248 694.123281 756.07950687 C690.14519873 760.04510007 686.17276663 764.01634482 682.19973755 767.98699951 C674.67436897 775.50614796 667.14391594 783.02018294 659.61163342 790.53240466 C651.0370751 799.08462056 642.46818438 807.64250544 633.8997705 816.20087671 C616.27282312 833.80691003 598.63875249 851.40579431 581 869 C574.40856939 863.57798166 568.43449804 857.5714565 562.41444397 851.53469849 C561.24129731 850.3619883 560.06793075 849.18949807 558.8943643 848.01720798 C555.68128663 844.80636017 552.47132502 841.59241306 549.26187456 838.37794018 C545.79615758 834.90789719 542.32754333 831.4407524 538.85928345 827.97325134 C532.8543674 821.96885917 526.85128227 815.96264151 520.84944344 809.95517349 C512.17183159 801.26942813 503.4914536 792.58645154 494.81040209 783.90414415 C480.72540378 769.81695824 466.64263922 755.72754148 452.5612793 741.63671875 C438.88406681 727.95032462 425.20580247 714.26498312 411.52612305 700.58105469 C410.68264236 699.73731128 409.83916168 698.89356787 408.97012097 698.02425648 C404.73854046 693.79137092 400.50693927 689.55850602 396.2753278 685.32565141 C361.18034537 650.22030543 326.08898794 615.1113376 291 580 C286.46078495 583.80084842 282.13094347 587.72508785 277.95716858 591.9225769 C277.10902711 592.76943674 277.10902711 592.76943674 276.24375147 593.63340485 C274.36983981 595.50568336 272.49949961 597.38148747 270.62915039 599.25732422 C269.27859629 600.60816069 267.92782136 601.95877642 266.57684326 603.30918884 C262.92430569 606.96144037 259.27485219 610.61675944 255.62595677 614.27264929 C251.80674973 618.09812197 247.98469679 621.92074915 244.16294861 625.74368286 C236.93277466 632.97696067 229.7051529 640.21278306 222.47845119 647.44952977 C214.24826087 655.69091059 206.01521936 663.92944059 197.78194058 672.16773582 C180.85145918 689.1086602 163.9245502 706.05315029 147 723 C148.5605548 726.73864449 150.86227447 729.11086391 153.71266365 731.95875931 C154.44043749 732.68999468 154.44043749 732.68999468 155.18291384 733.43600249 C156.81661628 735.07501603 158.45737896 736.70677417 160.09817505 738.33868408 C161.28002143 739.52140231 162.46142836 740.70455981 163.64243209 741.88811946 C166.89427557 745.14444472 170.15233886 748.39448461 173.41142631 751.64355755 C176.92287391 755.14638495 180.42855707 758.65497296 183.93493652 762.16287231 C190.01252268 768.24150823 196.09376604 774.3164655 202.17749405 780.38895416 C210.97358624 789.16880662 219.76416422 797.9541629 228.55339716 806.74088129 C242.81277717 820.9958818 257.07661972 835.24640833 271.34326172 849.49414062 C285.20367451 863.33620121 299.06198951 877.18035648 312.91748047 891.02734375 C313.77123576 891.88057359 314.62499105 892.73380343 315.50461771 893.61288872 C319.78755519 897.89321617 324.07045138 902.17358494 328.35332704 906.45397425 C363.89581766 941.97572443 399.4455481 977.49022239 435 1013 C433.67891396 1015.92327216 432.252994 1017.99671755 429.98801839 1020.2603786 C429.36572099 1020.88717059 428.74342359 1021.51396257 428.1022687 1022.15974826 C427.41604984 1022.84071309 426.72983098 1023.52167792 426.02281761 1024.22327805 C425.29282086 1024.95558248 424.56282412 1025.68788692 423.81070626 1026.4423824 C421.34422967 1028.91418561 418.87063747 1031.37874483 416.39706421 1033.84344482 C414.61712169 1035.62425886 412.83761847 1037.40551208 411.05851901 1039.18716836 C407.17958807 1043.06964844 403.29755513 1046.94898622 399.41278648 1050.82562447 C393.63627316 1056.59008168 387.86548918 1062.36024887 382.09587978 1068.13161515 C372.39093662 1077.839188 362.68133948 1087.54209327 352.96909714 1097.24236298 C343.35036869 1106.84926438 333.73370488 1116.45822476 324.11980057 1126.06995392 C323.52242258 1126.66719442 322.9250446 1127.26443493 322.30956426 1127.87977363 C319.27589345 1130.91276778 316.24225958 1133.94579888 313.20863993 1136.9788442 C291.71177575 1158.47150562 270.21027659 1179.95952467 248.70605469 1201.44482422 C227.81275851 1222.31975681 206.92156023 1243.19678527 186.03320312 1264.07666016 C185.38952808 1264.72007215 184.74585303 1265.36348414 184.08267268 1266.02639347 C177.61872768 1272.48770147 171.15482536 1278.94905216 164.6909543 1285.41043413 C151.52286471 1298.57345106 138.35449026 1311.73618301 125.1859436 1324.89874268 C124.58045246 1325.50395924 123.97496131 1326.10917581 123.35112195 1326.73273227 C82.90551877 1367.15992875 42.45325474 1407.5804602 2 1448 C-2.02294698 1446.14082272 -4.78499274 1443.48876549 -7.87188721 1440.36862183 C-8.45516934 1439.78704854 -9.03845148 1439.20547526 -9.63940883 1438.60627854 C-11.59414392 1436.65483968 -13.54164142 1434.69633472 -15.48925781 1432.73779297 C-16.88841524 1431.33807145 -18.2880131 1429.93879007 -19.6880188 1428.53991699 C-23.48967304 1424.73883737 -27.28512248 1420.93161583 -31.07950687 1417.123281 C-35.04510007 1413.14519873 -39.01634482 1409.17276663 -42.98699951 1405.19973755 C-50.50614796 1397.67436897 -58.02018294 1390.14391594 -65.53240466 1382.61163342 C-74.08462056 1374.0370751 -82.64250544 1365.46818438 -91.20087671 1356.8997705 C-108.80691003 1339.27282312 -126.40579431 1321.63875249 -144 1304 C-138.57798166 1297.40856939 -132.5714565 1291.43449804 -126.53469849 1285.41444397 C-125.3619883 1284.24129731 -124.18949807 1283.06793075 -123.01720798 1281.8943643 C-119.80636017 1278.68128663 -116.59241306 1275.47132502 -113.37794018 1272.26187456 C-109.90789719 1268.79615758 -106.4407524 1265.32754333 -102.97325134 1261.85928345 C-96.96885917 1255.8543674 -90.96264151 1249.85128227 -84.95517349 1243.84944344 C-76.26942813 1235.17183159 -67.58645154 1226.4914536 -58.90414415 1217.81040209 C-44.81695824 1203.72540378 -30.72754148 1189.64263922 -16.63671875 1175.5612793 C-2.95032462 1161.88406681 10.73501688 1148.20580247 24.41894531 1134.52612305 C25.26268872 1133.68264236 26.10643213 1132.83916168 26.97574352 1131.97012097 C31.20862908 1127.73854046 35.44149398 1123.50693927 39.67434859 1119.2753278 C74.77969457 1084.18034537 109.8886624 1049.08898794 145 1014 C141.19915158 1009.46078495 137.27491215 1005.13094347 133.0774231 1000.95716858 C132.23056326 1000.10902711 132.23056326 1000.10902711 131.36659515 999.24375147 C129.49431664 997.36983981 127.61851253 995.49949961 125.74267578 993.62915039 C124.39183931 992.27859629 123.04122358 990.92782136 121.69081116 989.57684326 C118.03855963 985.92430569 114.38324056 982.27485219 110.72735071 978.62595677 C106.90187803 974.80674973 103.07925085 970.98469679 99.25631714 967.16294861 C92.02303933 959.93277466 84.78721694 952.7051529 77.55047023 945.47845119 C69.30908941 937.24826087 61.07055941 929.01521936 52.83226418 920.78194058 C35.8913398 903.85145918 18.94684971 886.9245502 2 870 C-1.73864449 871.5605548 -4.11086391 873.86227447 -6.95875931 876.71266365 C-7.68999468 877.44043749 -7.68999468 877.44043749 -8.43600249 878.18291384 C-10.07501603 879.81661628 -11.70677417 881.45737896 -13.33868408 883.09817505 C-14.52140231 884.28002143 -15.70455981 885.46142836 -16.88811946 886.64243209 C-20.14444472 889.89427557 -23.39448461 893.15233886 -26.64355755 896.41142631 C-30.14638495 899.92287391 -33.65497296 903.42855707 -37.16287231 906.93493652 C-43.24150823 913.01252268 -49.3164655 919.09376604 -55.38895416 925.17749405 C-64.16880662 933.97358624 -72.9541629 942.76416422 -81.74088129 951.55339716 C-95.9958818 965.81277717 -110.24640833 980.07661972 -124.49414062 994.34326172 C-138.33620121 1008.20367451 -152.18035648 1022.06198951 -166.02734375 1035.91748047 C-166.88057359 1036.77123576 -167.73380343 1037.62499105 -168.61288872 1038.50461771 C-172.89321617 1042.78755519 -177.17358494 1047.07045138 -181.45397425 1051.35332704 C-216.97572443 1086.89581766 -252.49022239 1122.4455481 -288 1158 C-290.92327216 1156.67891396 -292.99671755 1155.252994 -295.2603786 1152.98801839 C-295.88717059 1152.36572099 -296.51396257 1151.74342359 -297.15974826 1151.1022687 C-297.84071309 1150.41604984 -298.52167792 1149.72983098 -299.22327805 1149.02281761 C-299.95558248 1148.29282086 -300.68788692 1147.56282412 -301.4423824 1146.81070626 C-303.91418561 1144.34422967 -306.37874483 1141.87063747 -308.84344482 1139.39706421 C-310.62425886 1137.61712169 -312.40551208 1135.83761847 -314.18716836 1134.05851901 C-318.06964844 1130.17958807 -321.94898622 1126.29755513 -325.82562447 1122.41278648 C-331.59008168 1116.63627316 -337.36024887 1110.86548918 -343.13161515 1105.09587978 C-352.839188 1095.39093662 -362.54209327 1085.68133948 -372.24236298 1075.96909714 C-381.84926438 1066.35036869 -391.45822476 1056.73370488 -401.06995392 1047.11980057 C-401.66719442 1046.52242258 -402.26443493 1045.9250446 -402.87977363 1045.30956426 C-405.91276778 1042.27589345 -408.94579888 1039.24225958 -411.9788442 1036.20863993 C-433.47150562 1014.71177575 -454.95952467 993.21027659 -476.44482422 971.70605469 C-497.31975681 950.81275851 -518.19678527 929.92156023 -539.07666016 909.03320312 C-539.72007215 908.38952808 -540.36348414 907.74585303 -541.02639347 907.08267268 C-547.48770147 900.61872768 -553.94905216 894.15482536 -560.41043413 887.6909543 C-573.57345106 874.52286471 -586.73618301 861.35449026 -599.89874268 848.1859436 C-600.80656752 847.27770688 -600.80656752 847.27770688 -601.73273227 846.35112195 C-642.15992875 805.90551877 -682.5804602 765.45325474 -723 725 C-721.14931243 721.00158358 -718.5267563 718.23876922 -715.4335022 715.15934753 C-714.57150099 714.28949131 -714.57150099 714.28949131 -713.69208562 713.40206224 C-711.76383818 711.4588042 -709.82849885 709.52277008 -707.89306641 707.58666992 C-706.50972187 706.19570493 -705.12678182 704.80433758 -703.74421692 703.41259766 C-699.98679489 699.63321977 -696.22280966 695.86044564 -692.45693636 692.08949065 C-690.10638738 689.7353011 -687.75714262 687.37981802 -685.40833664 685.02388954 C-677.22000293 676.81106301 -669.02596584 668.60397152 -660.82714844 660.40161133 C-653.17402292 652.7448449 -645.53414476 645.07503089 -637.90014327 637.39920157 C-631.35181695 630.81625151 -624.79397136 624.24288723 -618.22865999 617.67687684 C-614.30460111 613.75202282 -610.38467095 609.82324379 -606.47441483 605.88463402 C-602.8 602.18417253 -599.11395623 598.49571463 -595.41844749 594.81632233 C-594.06119148 593.46089117 -592.70823421 592.10114037 -591.35983849 590.73689461 C-589.52465218 588.88145102 -587.67489049 587.04191908 -585.82046509 585.20573425 C-585.28485698 584.65692618 -584.74924888 584.10811811 -584.19741023 583.54267949 C-582.68865395 582.06782818 -582.68865395 582.06782818 -580 580 C-575.90429132 580.18290043 -573.79961713 582.8276085 -571.02562332 585.60523319 C-570.5364447 586.09095028 -570.04726607 586.57666738 -569.54326385 587.07710317 C-567.89608272 588.71630567 -566.25987283 590.36604378 -564.62335205 592.0158844 C-563.43672242 593.20120651 -562.24943405 594.38586946 -561.06154227 595.56992668 C-557.79154767 598.83319383 -554.53101331 602.10577447 -551.27189946 605.37990367 C-547.75860404 608.90612264 -544.23667616 612.42370049 -540.71577454 615.94232178 C-534.61421652 622.04230472 -528.51818687 628.14776799 -522.42584991 634.25695992 C-513.61728663 643.08987699 -504.80047698 651.91452441 -495.98161551 660.73715829 C-481.67474196 675.05060201 -467.37458438 689.3707361 -453.07861328 703.69506836 C-439.18921935 717.61198822 -425.2966863 731.52576203 -411.39990234 745.43530273 C-410.54368551 746.29230774 -409.68746867 747.14931275 -408.80530587 748.03228761 C-404.51001154 752.33149697 -400.21465525 756.6306444 -395.91926813 760.92976105 C-360.26989819 796.61024451 -324.63141099 832.3015829 -289 868 C-284.46078495 864.19915158 -280.13094347 860.27491215 -275.95716858 856.0774231 C-275.39174093 855.51284987 -274.82631328 854.94827665 -274.24375147 854.36659515 C-272.36983981 852.49431664 -270.49949961 850.61851253 -268.62915039 848.74267578 C-267.27859629 847.39183931 -265.92782136 846.04122358 -264.57684326 844.69081116 C-260.92430569 841.03855963 -257.27485219 837.38324056 -253.62595677 833.72735071 C-249.80674973 829.90187803 -245.98469679 826.07925085 -242.16294861 822.25631714 C-234.93277466 815.02303933 -227.7051529 807.78721694 -220.47845119 800.55047023 C-212.24826087 792.30908941 -204.01521936 784.07055941 -195.78194058 775.83226418 C-178.85145918 758.8913398 -161.9245502 741.94684971 -145 725 C-146.5605548 721.26135551 -148.86227447 718.88913609 -151.71266365 716.04124069 C-152.44043749 715.31000532 -152.44043749 715.31000532 -153.18291384 714.56399751 C-154.81661628 712.92498397 -156.45737896 711.29322583 -158.09817505 709.66131592 C-159.28002143 708.47859769 -160.46142836 707.29544019 -161.64243209 706.11188054 C-164.89427557 702.85555528 -168.15233886 699.60551539 -171.41142631 696.35644245 C-174.92287391 692.85361505 -178.42855707 689.34502704 -181.93493652 685.83712769 C-188.01252268 679.75849177 -194.09376604 673.6835345 -200.17749405 667.61104584 C-208.97358624 658.83119338 -217.76416422 650.0458371 -226.55339716 641.25911871 C-240.81277717 627.0041182 -255.07661972 612.75359167 -269.34326172 598.50585938 C-283.20367451 584.66379879 -297.06198951 570.81964352 -310.91748047 556.97265625 C-311.77123576 556.11942641 -312.62499105 555.26619657 -313.50461771 554.38711128 C-317.78755519 550.10678383 -322.07045138 545.82641506 -326.35332704 541.54602575 C-361.89581766 506.02427557 -397.4455481 470.50977761 -433 435 C-431.67891396 432.07672784 -430.252994 430.00328245 -427.98801839 427.7396214 C-427.36572099 427.11282941 -426.74342359 426.48603743 -426.1022687 425.84025174 C-425.41604984 425.15928691 -424.72983098 424.47832208 -424.02281761 423.77672195 C-423.29282086 423.04441752 -422.56282412 422.31211308 -421.81070626 421.5576176 C-419.34422967 419.08581439 -416.87063747 416.62125517 -414.39706421 414.15655518 C-412.61712169 412.37574114 -410.83761847 410.59448792 -409.05851901 408.81283164 C-405.17958807 404.93035156 -401.29755513 401.05101378 -397.41278648 397.17437553 C-391.63627316 391.40991832 -385.86548918 385.63975113 -380.09587978 379.86838485 C-370.39093662 370.160812 -360.68133948 360.45790673 -350.96909714 350.75763702 C-341.35036869 341.15073562 -331.73370488 331.54177524 -322.11980057 321.93004608 C-321.52242258 321.33280558 -320.9250446 320.73556507 -320.30956426 320.12022637 C-317.27589345 317.08723222 -314.24225958 314.05420112 -311.20863993 311.0211558 C-289.71177575 289.52849438 -268.21027659 268.04047533 -246.70605469 246.55517578 C-225.81275851 225.68024319 -204.92156023 204.80321473 -184.03320312 183.92333984 C-183.38952808 183.27992785 -182.74585303 182.63651586 -182.08267268 181.97360653 C-175.61872768 175.51229853 -169.15482536 169.05094784 -162.6909543 162.58956587 C-149.52286471 149.42654894 -136.35449026 136.26381699 -123.1859436 123.10125732 C-122.27770688 122.19343248 -122.27770688 122.19343248 -121.35112195 121.26726773 C-80.90551877 80.84007125 -40.45325474 40.4195398 0 0 Z " fill="#000000" transform="translate(1023,300)"/>
</svg>
